# AST/ASF file generated using VICON BodyLanguage
# -----------------------------------------------
:version 1.10
:name VICON
:units
  mass 1.0
  length 0.45
  angle deg
:documentation
   .ast/.asf automatically generated from VICON data using
   VICON BodyBuilder and BodyLanguage model FoxedUp or BRILLIANT.MOD
:root
   order TX TY TZ RX RY RZ
   axis XYZ
   position 0 0 0  
   orientation 0 0 0 
:bonedata
  begin
     id 1 
     name lhipjoint
     direction 0.660183 -0.676772 0.325788 
     length 2.75133 
     axis 0 0 0  XYZ
  end
  begin
     id 2 
     name lfemur
     direction 0.34202 -0.939693 0  
     length 7.70317  
     axis 0 0 20  XYZ
    dof rx ry rz
    limits (-160.0 20.0)
           (-70.0 70.0)
           (-60.0 70.0)
  end
  begin
     id 3 
     name ltibia
     direction 0.342105 -0.939662 0   
     length 7.18701   
     axis 0 0 20   XYZ
    dof rx
    limits (-10.0 170.0)
  end
  begin
     id 4 
     name lfoot
     direction 0.14163 -0.389126 0.910232   
     length 2.41719   
     axis -90 7.62852e-016 20   XYZ
    dof rx rz
    limits (-45.0 90.0)
           (-70.0 20.0)
  end
  begin
     id 5 
     name ltoes
     direction 1.53533e-011 -4.21926e-011 1   
     length 1.18611   
     axis -90 7.62852e-016 20   XYZ
    dof rx
    limits (-90.0 20.0)
  end
  begin
     id 6 
     name rhipjoint
     direction -0.6658 -0.67229 0.323631   
     length 2.76968  
     axis 0 0 0  XYZ 
  end
  begin
     id 7 
     name rfemur
     direction -0.34202 -0.939693 0   
     length 7.92547   
     axis 0 0 -20   XYZ
    dof rx ry rz
    limits (-160.0 20.0)
           (-70.0 70.0)
           (-70.0 60.0)
  end
  begin
     id 8 
     name rtibia
     direction -0.342022 -0.939692 0   
     length 7.22641   
     axis 0 0 -20   XYZ
    dof rx
    limits (-10.0 170.0)
 end
 begin
     id 9 
     name rfoot
     direction -0.105675 -0.29034 0.951071   
     length 2.48149  
     axis -90 -7.62852e-016 -20   XYZ
    dof rx rz
    limits (-45.0 90.0)
           (-20.0 70.0)
  end
  begin
     id 10 
     name rtoes
     direction -1.5349e-011 -4.21859e-011 1   
     length 1.23343   
     axis -90 -7.62852e-016 -20   XYZ
    dof rx
    limits (-90.0 20.0)
  end
  begin
     id 11 
     name lowerback
     direction 0.0104173 0.993624 -0.112266   
     length 2.00527   
     axis 0 0 0   XYZ
    dof rx ry rz
    limits (-20.0 45.0)
           (-30.0 30.0)
           (-30.0 30.0)
  end
  begin
     id 12 
     name upperback
     direction 0.00733149 0.999856 -0.0152913   
     length 2.01385   
     axis 0 0 0   XYZ
    dof rx ry rz
    limits (-20.0 45.0)
           (-30.0 30.0)
           (-30.0 30.0)
  end
  begin
     id 13 
     name thorax
     direction 0.0026304 0.999318 0.036841   
     length 2.03734   
     axis 0 0 0   XYZ
    dof rx ry rz
    limits (-20.0 45.0)
           (-30.0 30.0)
           (-30.0 30.0)
  end
  begin
     id 14 
     name lowerneck
     direction 0.0293154 0.998757 0.0403082   
     length 1.65303   
     axis 0 0 0   XYZ
    dof rx ry rz
    limits (-20.0 45.0)
           (-30.0 30.0)
           (-30.0 30.0)
  end
  begin
     id 15 
     name upperneck
     direction -0.0376619 0.998184 -0.0470083   
     length 1.60926   
     axis 0 0 0   XYZ
    dof rx ry rz
    limits (-20.0 45.0)
           (-30.0 30.0)
           (-30.0 30.0)
  end
  begin
     id 16
     name head
     direction -0.0170133 0.999635 -0.0209778  
     length 1.73625  
     axis 0 0 0   XYZ
    dof rx ry rz
    limits (-20.0 45.0)
           (-30.0 30.0)
           (-30.0 30.0)
  end
  begin
     id 17 
     name lclavicle
     direction 0.919857 0.39181 -0.0186333  
     length 3.75313  
     axis 0 0 0   XYZ
    dof ry rz
    limits (-20.0 10.0)
           (0.0 20.0)
  end
  begin
     id 18 
     name lhumerus
     direction 1 -4.48988e-011 1.44029e-027   
     length 5.49313   
     axis 180 -30 -90   XYZ
    dof rx ry rz
    limits (-60.0 90.0)
           (-90.0 90.0)
           (-90.0 90.0)
  end
  begin
     id 19
     name lradius
     direction 1 -4.48924e-011 7.46281e-027   
     length 3.29037   
     axis 180 -30 -90   XYZ
    dof rx
    limits (-10.0 170.0)
  end
  begin
     id 20
     name lwrist
     direction 1 -4.48955e-011 2.19879e-026   
     length 1.64519   
     axis -1.34358e-014 90 90   XYZ
    dof ry
    limits (-180.0 0.0)
 end
  begin
     id 21 
     name lhand
     direction 1 -4.48978e-011 4.39747e-026   
     length 0.729656   
     axis -2.80598e-014 90 90   XYZ
    dof rx rz
    limits (-90.0 90.0)
           (-45.0 45.0)
  end
  begin
     id 22 
     name lfingers
     direction 1 -4.49071e-011 8.79411e-026   
     length 0.588268   
     axis -5.61193e-014 90 90   XYZ
    dof rx
    limits (0.0 90.0)
  end
  begin
     id 23
     name lthumb
     direction 0.707107 -6.34817e-011 0.707107   
     length 0.844638   
     axis -90 45 -9.86923e-015   XYZ
    dof rx rz
    limits (-45.0 45.0)
           (-45.0 45.0)
  end
  begin
     id 24 
     name rclavicle
     direction -0.919898 0.388279 0.0550233   
     length 3.7171  
     axis 0 0 0   XYZ 
    dof ry rz
    limits (-10.0 20.0)
           (-20.0 0.0)
  end
  begin
     id 25 
     name rhumerus
     direction -1 -4.48968e-011 9.98372e-028  
     length 5.23684   
     axis 180 30 90   XYZ
    dof rx ry rz
    limits (-90.0 60.0)
           (-90.0 90.0)
           (-90.0 90.0)
  end
  begin
     id 26 
     name rradius
     direction -1 -4.48956e-011 1.01023e-026   
     length 3.38251   
     axis 180 30 90   XYZ
    dof rx
    limits (-10.0 170.0)
  end
  begin
     id 27 
     name rwrist
     direction -1 -4.4892e-011 2.19886e-026   
     length 1.69126   
     axis -1.34358e-014 -90 -90   XYZ
    dof ry
    limits (-180.0 0.0)
  end
  begin
     id 28
     name rhand
     direction -1 -4.49024e-011 4.39727e-026   
     length 0.691454   
     axis -2.80598e-014 -90 -90   XYZ
    dof rx rz
    limits (-90.0 90.0)
           (-45.0 45.0)
  end
  begin
     id 29
     name rfingers
     direction -1 -4.49097e-011 8.79388e-026   
     length 0.557468   
     axis -5.61193e-014 -90 -90   XYZ
    dof rx
    limits (0.0 90.0)
  end
  begin
     id 30
     name rthumb
     direction -0.707107 -6.34938e-011 0.707107   
     length 0.800416   
     axis -90 -45 9.86923e-015   XYZ
    dof rx rz
    limits (-45.0 45.0)
           (-45.0 45.0)
  end
:hierarchy
  begin
    root lhipjoint rhipjoint lowerback
    lhipjoint lfemur
    lfemur ltibia
    ltibia lfoot
    lfoot ltoes
    rhipjoint rfemur
    rfemur rtibia
    rtibia rfoot
    rfoot rtoes
    lowerback upperback
    upperback thorax
    thorax lowerneck lclavicle rclavicle
    lowerneck upperneck
    upperneck head
    lclavicle lhumerus
    lhumerus lradius
    lradius lwrist
    lwrist lhand lthumb
    lhand lfingers
    rclavicle rhumerus
    rhumerus rradius
    rradius rwrist
    rwrist rhand rthumb
    rhand rfingers
  end

#!OML:ASF H:\BabyWalks\Project 1\Capture day 1\Session 1\baby.ASF
:FULLY-SPECIFIED
:DEGREES
267
root -24.7715 17.262 -1.83401 -102.776 85.6059 -110.042
lowerback 17.7167 1.15555 3.66797
upperback 5.06133 2.73771 3.95723
thorax -4.52355 1.47234 1.52908
lowerneck -2.53104 -1.97532 8.87304
upperneck 0.202866 -2.78831 -10.4953
head 0.198944 -1.44188 -4.61747
rclavicle -2.22639e-014 -8.74653e-015
rhumerus -47.6421 3.69716 -79.26
rradius 41.8246
rwrist 0.101147
rhand -17.2611 -19.088
rfingers 7.12502
rthumb 8.98339 -48.8767
lclavicle -2.22639e-014 -8.74653e-015
lhumerus -57.4394 -4.37259 83.1504
lradius 47.3823
lwrist -4.55403
lhand 4.17359 5.04288
lfingers 7.12502
lthumb 29.5814 32.7051
rfemur -5.92881 16.0712 26.6534
rtibia 30.1832
rfoot -26.648 2.74718
rtoes 0.687622
lfemur -36.3569 1.76766 -9.3919
ltibia 63.4008
lfoot -21.409 -16.228
ltoes -15.7267
268
root -24.6103 17.3033 -1.84651 -104.211 85.5426 -111.719
lowerback 17.6768 1.19156 3.67161
upperback 5.00119 2.76882 3.80487
thorax -4.55851 1.4834 1.35878
lowerneck -2.55837 -2.02391 8.58096
upperneck 0.094702 -2.85886 -10.0232
head 0.175692 -1.47595 -4.42385
rclavicle -3.97569e-014 -2.94201e-014
rhumerus -47.7379 3.91175 -79.4866
rradius 42.323
rwrist -0.604184
rhand -17.164 -18.9195
rfingers 7.12502
rthumb 9.07709 -48.7042
lclavicle -3.97569e-014 -2.94201e-014
lhumerus -58.0437 -4.50473 83.0587
lradius 47.4056
lwrist -5.0733
lhand 4.66235 4.9243
lfingers 7.12502
lthumb 30.0479 32.5029
rfemur -4.87655 15.7712 26.7094
rtibia 28.6037
rfoot -25.956 2.91921
rtoes 0.366241
lfemur -37.0339 1.0292 -9.43656
ltibia 61.0587
lfoot -21.7811 -15.4041
ltoes -15.4242
269
root -24.4462 17.3445 -1.85973 -105.581 85.4744 -113.343
lowerback 17.62 1.22834 3.67785
upperback 4.93309 2.79841 3.63187
thorax -4.59155 1.49317 1.16592
lowerneck -2.5801 -2.08165 8.34056
upperneck -0.0275567 -2.94302 -9.19732
head 0.166293 -1.51396 -4.57599
rclavicle -8.34896e-015 5.56597e-015
rhumerus -47.8757 4.13216 -79.7429
rradius 42.8325
rwrist -1.30393
rhand -16.9406 -18.6852
rfingers 7.12502
rthumb 9.29267 -48.4604
lclavicle -8.34896e-015 5.56597e-015
lhumerus -58.66 -4.66886 82.941
lradius 47.5369
lwrist -5.28244
lhand 4.93596 4.86045
lfingers 7.12502
lthumb 30.3089 32.3913
rfemur -3.79699 15.4402 26.7581
rtibia 26.9447
rfoot -25.169 3.11521
rtoes -0.0217367
lfemur -37.6165 0.245063 -9.43125
ltibia 58.5688
lfoot -22.0358 -14.613
ltoes -15.0101
270
root -24.2795 17.3851 -1.87368 -106.634 85.4043 -114.659
lowerback 17.5557 1.26242 3.67873
upperback 4.8573 2.82162 3.4434
thorax -4.62802 1.49932 0.961296
lowerneck -2.62628 -2.13607 8.02077
upperneck -0.0767212 -3.01785 -8.65367
head 0.165112 -1.55095 -4.31439
rclavicle -1.39149e-014 6.36111e-015
rhumerus -48.0393 4.37934 -80.0236
rradius 43.3484
rwrist -1.98819
rhand -16.5777 -18.3926
rfingers 7.12502
rthumb 9.6428 -48.1519
lclavicle -1.39149e-014 6.36111e-015
lhumerus -59.2841 -4.82259 82.7877
lradius 47.7687
lwrist -5.1568
lhand 5.04717 4.86528
lfingers 7.12502
lthumb 30.415 32.3766
rfemur -2.71701 15.0953 26.8007
rtibia 25.2614
rfoot -24.3154 3.35859
rtoes -0.387614
lfemur -38.1049 -0.545621 -9.37276
ltibia 55.9819
lfoot -22.1998 -13.8638
ltoes -14.5581
271
root -24.1101 17.4244 -1.88791 -107.356 85.3315 -115.644
lowerback 17.4881 1.29699 3.68054
upperback 4.77435 2.84361 3.23324
thorax -4.66893 1.5043 0.733621
lowerneck -2.68787 -2.18279 7.70886
upperneck -0.0919964 -3.08199 -8.06366
head 0.17983 -1.58264 -4.04152
rclavicle -9.93923e-015 -7.15625e-015
rhumerus -48.2294 4.62835 -80.3337
rradius 43.8595
rwrist -2.64556
rhand -16.0979 -18.0506
rfingers 7.12502
rthumb 10.1057 -47.788
lclavicle -9.93923e-015 -7.15625e-015
lhumerus -59.9032 -4.98722 82.5917
lradius 48.0794
lwrist -4.70916
lhand 5.04659 4.93038
lfingers 7.12502
lthumb 30.4144 32.4418
rfemur -1.63178 14.7398 26.8453
rtibia 23.5706
rfoot -23.3963 3.64818
rtoes -0.760662
lfemur -38.497 -1.33322 -9.25864
ltibia 53.3434
lfoot -22.275 -13.1534
ltoes -14.1553
